<?xml version="1.0" encoding="UTF-8"?>
<svg id="Ebene_2" data-name="Ebene 2" xmlns="http://www.w3.org/2000/svg" viewBox="0 0 50 37.37">
  <defs>
    <style>
      .cls-1 {
        stroke: #353535;
        stroke-linecap: round;
        stroke-miterlimit: 10;
        stroke-width: .5px;
      }

      .cls-1, .cls-2 {
        fill: none;
      }

      .cls-2 {
        stroke: #5cafbb;
        stroke-linejoin: round;
        stroke-width: .75px;
      }

      .cls-3 {
        fill: #5cafbb;
      }

      .cls-3, .cls-4, .cls-5 {
        stroke-width: 0px;
      }

      .cls-4 {
        fill: #353535;
      }

      .cls-5 {
        fill: #fff;
      }
    </style>
  </defs>
  <g id="Ebene_1-2" data-name="Ebene 1">
    <g id="Icon">
      <g id="Laptop">
        <g>
          <rect class="cls-3" x="9.25" y="5.62" width="31.5" height="24.5" rx=".75" ry=".75"/>
          <path class="cls-5" d="m40,6.37v23H10V6.37h30m0-1.5H10c-.83,0-1.5.67-1.5,1.5v23c0,.83.67,1.5,1.5,1.5h30c.83,0,1.5-.67,1.5-1.5V6.37c0-.83-.67-1.5-1.5-1.5h0Z"/>
        </g>
        <rect class="cls-5" x="0" y="33.37" width="50" height="4" rx="2" ry="2"/>
      </g>
      <g id="Kopfhörer">
        <path class="cls-2" d="m47,13.37v-7c0-3.31-2.68-6-6-6H9C5.68.38,3,3.06,3,6.37v7"/>
        <rect class="cls-5" x="44" y="11.37" width="6" height="12" rx="3" ry="3"/>
        <path class="cls-5" d="m3.14,23.37c1.64-.07,2.86-1.55,2.86-3.19v-5.07c0-2.19-1.23-3.66-2.86-3.74C1.42,11.3,0,12.67,0,14.37v6C0,22.08,1.42,23.45,3.14,23.37Z"/>
      </g>
      <g id="Gesicht">
        <rect class="cls-4" x="16" y="11.37" width="3.14" height="7.71" rx="1.57" ry="1.57"/>
        <rect class="cls-4" x="30.86" y="11.37" width="3.14" height="7.71" rx="1.57" ry="1.57"/>
        <path class="cls-1" d="m26.5,19.62c0,.83-.67,1.5-1.5,1.5s-1.5-.67-1.5-1.5"/>
      </g>
    </g>
  </g>
</svg>